<svg width="116" height="117" viewBox="0 0 116 117" fill="none" xmlns="http://www.w3.org/2000/svg">
<circle cx="57.8394" cy="58.665" r="57.75" fill="#EBF5FA"/>
<path d="M70.0902 40.8206C68.4267 40.7224 67.1304 39.3929 67.0722 37.7288C67.057 37.2528 66.6663 36.8723 66.1869 36.8701L54.554 36.8119C54.0746 36.8097 53.6838 37.1865 53.6607 37.6623C53.5904 39.3293 52.278 40.6466 50.6138 40.7256C50.1413 40.7477 49.7712 41.1384 49.769 41.6108L49.734 49.0513C49.7163 52.8132 51.7425 56.2928 55.0234 58.1359L59.8252 60.8331C59.9603 60.9102 60.1061 60.9456 60.2554 60.9463C60.4048 60.947 60.5543 60.9095 60.6867 60.8372L65.5137 58.1852C68.8117 56.3735 70.8705 52.913 70.8882 49.1507L70.9232 41.7103C70.9323 41.2414 70.5625 40.8471 70.0902 40.8206ZM69.1166 49.1458C69.102 52.2616 67.3968 55.1298 64.6629 56.6315L60.2678 59.0459L55.8956 56.5903C53.1794 55.063 51.5013 52.1789 51.516 49.0631L51.5473 42.3938C53.4459 41.9755 54.9222 40.4958 55.3306 38.5975L65.3968 38.6414C65.7908 40.5467 67.2497 42.0404 69.1442 42.4731L69.1129 49.1458L69.1166 49.1458Z" fill="#3371B3"/>
<path d="M66.1366 69.0874L54.3053 69.0318C53.8155 69.0295 53.4142 69.4271 53.4119 69.9168C53.4096 70.4066 53.8072 70.8079 54.2969 70.8102L66.1247 70.8658C66.6144 70.8681 67.0158 70.4706 67.0181 69.9808C67.0239 69.4875 66.6264 69.0897 66.1366 69.0874Z" fill="#3371B3"/>
<path d="M66.1049 75.7709L54.2736 75.7152C53.7838 75.7129 53.3825 76.1105 53.3802 76.6003C53.3779 77.0901 53.7755 77.4914 54.2653 77.4937L66.093 77.5493C66.5827 77.5516 66.9841 77.154 66.9864 76.6642C66.9922 76.171 66.5947 75.7732 66.1049 75.7709Z" fill="#3371B3"/>
<path d="M92.2289 39.2778L92.2675 31.0662C92.2754 29.3676 90.8994 27.9787 89.1974 27.9707L83.2402 27.9427L83.2456 26.7998C83.2587 23.9967 80.9908 21.7073 78.1876 21.6941L29.1756 21.4638C28.6859 21.4615 28.2845 21.8591 28.2822 22.3488L27.9562 91.7092C27.9539 92.199 28.3515 92.6003 28.8413 92.6026L77.8533 92.833C80.6564 92.8462 82.9458 90.5782 82.959 87.7751L83.0542 67.5138L89.0114 67.5418C90.71 67.5498 92.1024 66.1739 92.1104 64.4718L92.149 56.2602C92.1531 55.4022 91.8024 54.626 91.2388 54.0605C91.8076 53.5039 92.1656 52.731 92.1697 51.8731L92.2083 43.6615C92.2123 42.8035 91.8616 42.0273 91.298 41.4618C91.8668 40.9087 92.2248 40.1357 92.2289 39.2778ZM30.0563 23.2466L38.5041 23.2863L38.1864 90.8682L29.7387 90.8285L30.0563 23.2466ZM81.1805 87.7667C81.1719 89.5904 79.6852 91.0631 77.8616 91.0545L39.9651 90.8764L40.2827 23.2945L78.1793 23.4726C79.9995 23.4812 81.4757 24.9679 81.4671 26.7915L81.1805 87.7667ZM90.3705 56.2556L90.3319 64.4671C90.3286 65.1862 89.7422 65.7705 89.0197 65.7671L83.0625 65.7391L83.1134 54.9153L89.0706 54.9433C89.7931 54.9467 90.3739 55.5365 90.3705 56.2556ZM90.4298 43.6569L90.3912 51.8685C90.3878 52.5875 89.8015 53.1683 89.0789 53.1649L83.1218 53.1369L83.1726 42.3166L89.1298 42.3446C89.8523 42.348 90.4331 42.9378 90.4298 43.6569ZM83.181 40.5382L83.2318 29.7215L89.189 29.7495C89.908 29.7529 90.4924 30.3392 90.489 31.0582L90.4504 39.2698C90.447 39.9888 89.8607 40.5731 89.1381 40.5697L83.181 40.5382Z" fill="#3371B3" stroke="#E6F3F2" stroke-width="0.5"/>
</svg>
