<svg width="118" height="117" viewBox="0 0 118 117" fill="none" xmlns="http://www.w3.org/2000/svg">
<circle cx="58.0352" cy="58.665" r="57.75" fill="#EBF5FA"/>
<path d="M90.6643 50.4782L32.9713 50.4782C32.9713 50.4782 28.8787 49.2588 28.8787 42.4994C28.8787 42.4994 30.2449 46.4888 35.8099 46.4888" stroke="#3371B3" stroke-width="1.5" stroke-linecap="round" stroke-linejoin="round"/>
<path d="M95.8804 42.4994L98.1113 42.4994C98.2818 42.4994 98.4506 42.533 98.6081 42.5982C98.7656 42.6635 98.9087 42.7591 99.0293 42.8796C99.1498 43.0002 99.2455 43.1433 99.3107 43.3008C99.3759 43.4583 99.4095 43.6272 99.4095 43.7977L99.4095 49.1799C99.4095 49.5242 99.2727 49.8544 99.0293 50.0979C98.7858 50.3414 98.4556 50.4781 98.1113 50.4781L95.8804 50.4781" stroke="#3371B3" stroke-width="1.5" stroke-linecap="round" stroke-linejoin="round"/>
<path d="M71.3305 55.6124L69.4877 60.158C68.9997 61.753 68.0126 63.1492 66.6717 64.1412C65.3308 65.1332 63.7069 65.6686 62.0389 65.6686L52.0239 65.6686" stroke="#3371B3" stroke-width="1.5" stroke-linecap="round" stroke-linejoin="round"/>
<path d="M61.5319 61.2001C60.5658 61.2001 59.6198 60.9249 58.8045 60.4067C57.9893 59.8885 57.3385 59.1488 56.9283 58.2742L55.6801 55.6124M55.6801 55.6124L94.5828 55.6124C94.7533 55.6124 94.9222 55.5788 95.0797 55.5136C95.2372 55.4483 95.3803 55.3527 95.5009 55.2322C95.6214 55.1116 95.717 54.9685 95.7823 54.811C95.8475 54.6534 95.8811 54.4846 95.8811 54.3141L95.8811 42.4994L38.6484 42.4994L32.9712 50.4782L34.2825 55.6125L24.5419 81.2586C24.3179 81.8482 24.2405 82.4834 24.3163 83.1096C24.3921 83.7357 24.6188 84.3341 24.977 84.8533C25.3351 85.3724 25.814 85.7969 26.3725 86.09C26.9309 86.3832 27.5522 86.5364 28.1829 86.5364L41.7097 86.5364C42.5186 86.5364 43.3075 86.2845 43.9667 85.8157C44.626 85.3469 45.1229 84.6845 45.3885 83.9204L55.6801 55.6124Z" stroke="#3371B3" stroke-width="1.5" stroke-linecap="round" stroke-linejoin="round"/>
<path d="M39.0148 50.4782L44.5759 42.4994" stroke="#3371B3" stroke-width="1.5" stroke-linecap="round" stroke-linejoin="round"/>
<path d="M44.9587 50.4782L50.5198 42.4994" stroke="#3371B3" stroke-width="1.5" stroke-linecap="round" stroke-linejoin="round"/>
<path d="M50.9038 50.4782L56.465 42.4994" stroke="#3371B3" stroke-width="1.5" stroke-linecap="round" stroke-linejoin="round"/>
<path d="M31.3429 80.9083L38.336 80.9083" stroke="#3371B3" stroke-width="1.5" stroke-linecap="round" stroke-linejoin="round"/>
<path d="M34.2828 55.6124L41.7957 55.6124" stroke="#3371B3" stroke-width="1.5" stroke-linecap="round" stroke-linejoin="round"/>
</svg>
