<svg width="61" height="61" viewBox="0 0 61 61" fill="none" xmlns="http://www.w3.org/2000/svg">
<rect x="0.539062" y="1.27344" width="59" height="59" rx="29.5" stroke="#727176"/>
<rect x="0.539062" y="1.27344" width="59" height="59" rx="29.5" stroke="black" stroke-opacity="0.2"/>
<rect x="0.539062" y="1.27344" width="59" height="59" rx="29.5" stroke="black" stroke-opacity="0.2"/>
<rect x="0.539062" y="1.27344" width="59" height="59" rx="29.5" stroke="black" stroke-opacity="0.2"/>
<rect x="0.539062" y="1.27344" width="59" height="59" rx="29.5" stroke="black" stroke-opacity="0.2"/>
<path fill-rule="evenodd" clip-rule="evenodd" d="M43.24 18.7841C43.6331 19.027 43.8724 19.4562 43.8724 19.9183V33.2516C43.8724 33.988 43.2754 34.585 42.5391 34.585C41.8027 34.585 41.2057 33.988 41.2057 33.2516V22.0757L35.1353 25.1109C34.76 25.2986 34.3181 25.2986 33.9428 25.1109L26.5391 21.409L19.8724 24.7423V39.0942L25.9428 36.0591C26.3181 35.8714 26.76 35.8714 27.1353 36.0591L29.802 37.3924C30.4606 37.7217 30.7276 38.5226 30.3983 39.1812C30.069 39.8399 29.2681 40.1069 28.6094 39.7775L26.5391 38.7423L19.1353 42.4442C18.722 42.6509 18.2312 42.6288 17.8381 42.3858C17.445 42.1429 17.2057 41.7137 17.2057 41.2516V23.9183C17.2057 23.4133 17.4911 22.9516 17.9428 22.7257L25.9428 18.7257C26.3181 18.538 26.76 18.538 27.1353 18.7257L34.5391 22.4276L41.9428 18.7257C42.3561 18.5191 42.8469 18.5412 43.24 18.7841Z" fill="#727176"/>
<path fill-rule="evenodd" clip-rule="evenodd" d="M26.5391 18.585C27.2754 18.585 27.8724 19.1819 27.8724 19.9183V37.2516C27.8724 37.988 27.2754 38.585 26.5391 38.585C25.8027 38.585 25.2057 37.988 25.2057 37.2516V19.9183C25.2057 19.1819 25.8027 18.585 26.5391 18.585Z" fill="#727176"/>
<path fill-rule="evenodd" clip-rule="evenodd" d="M34.5391 22.585C35.2754 22.585 35.8724 23.1819 35.8724 23.9183V30.585C35.8724 31.3213 35.2754 31.9183 34.5391 31.9183C33.8027 31.9183 33.2057 31.3213 33.2057 30.585V23.9183C33.2057 23.1819 33.8027 22.585 34.5391 22.585Z" fill="#727176"/>
<path fill-rule="evenodd" clip-rule="evenodd" d="M36.5391 35.9183C35.4345 35.9183 34.5391 36.8137 34.5391 37.9183C34.5391 39.0229 35.4345 39.9183 36.5391 39.9183C37.6436 39.9183 38.5391 39.0229 38.5391 37.9183C38.5391 36.8137 37.6436 35.9183 36.5391 35.9183ZM31.8724 37.9183C31.8724 35.341 33.9617 33.2516 36.5391 33.2516C39.1164 33.2516 41.2057 35.341 41.2057 37.9183C41.2057 40.4956 39.1164 42.585 36.5391 42.585C33.9617 42.585 31.8724 40.4956 31.8724 37.9183Z" fill="#727176"/>
<path fill-rule="evenodd" clip-rule="evenodd" d="M38.2629 39.6422C38.7836 39.1215 39.6278 39.1215 40.1485 39.6422L43.4819 42.9755C44.0026 43.4962 44.0026 44.3404 43.4819 44.8611C42.9612 45.3818 42.1169 45.3818 41.5962 44.8611L38.2629 41.5278C37.7422 41.0071 37.7422 40.1629 38.2629 39.6422Z" fill="#727176"/>
</svg>
