<svg width="116" height="116" viewBox="0 0 116 116" fill="none" xmlns="http://www.w3.org/2000/svg">
<circle cx="57.75" cy="57.9602" r="57.75" fill="#EBF5FA"/>
<path d="M70.0011 40.1155C68.3377 40.0174 67.0414 38.6879 66.9831 37.0237C66.968 36.5477 66.5773 36.1673 66.0979 36.165L54.4649 36.1069C53.9856 36.1046 53.5948 36.4814 53.5717 36.9572C53.5013 38.6242 52.189 39.9415 50.5248 40.0205C50.0522 40.0426 49.6822 40.4334 49.68 40.9058L49.645 48.3462C49.6273 52.1081 51.6535 55.5878 54.9344 57.4308L59.7362 60.128C59.8713 60.2051 60.017 60.2405 60.1664 60.2412C60.3158 60.2419 60.4653 60.2044 60.5977 60.1321L65.4246 57.4801C68.7227 55.6684 70.7815 52.208 70.7992 48.4456L70.8341 41.0052C70.8433 40.5363 70.4734 40.142 70.0011 40.1155ZM69.0276 48.4408C69.0129 51.5566 67.3078 54.4247 64.5739 55.9264L60.1787 58.3408L55.8065 55.8852C53.0904 54.3579 51.4123 51.4738 51.4269 48.358L51.4583 41.6888C53.3569 41.2704 54.8332 39.7907 55.2416 37.8924L65.3078 37.9363C65.7017 39.8417 67.1606 41.3353 69.0552 41.768L69.0238 48.4407L69.0276 48.4408Z" fill="#3371B3"/>
<path d="M66.0477 68.3825L54.2164 68.3269C53.7266 68.3246 53.3253 68.7222 53.323 69.212C53.3207 69.7018 53.7183 70.1031 54.208 70.1054L66.0357 70.161C66.5255 70.1633 66.9269 69.7657 66.9292 69.2759C66.935 68.7827 66.5374 68.3848 66.0477 68.3825Z" fill="#3371B3"/>
<path d="M66.0159 75.0659L54.1846 75.0103C53.6949 75.008 53.2935 75.4056 53.2912 75.8953C53.2889 76.3851 53.6865 76.7865 54.1763 76.7888L66.004 76.8443C66.4938 76.8467 66.8951 76.4491 66.8974 75.9593C66.9032 75.4661 66.5057 75.0682 66.0159 75.0659Z" fill="#3371B3"/>
<path d="M92.1397 38.5728L92.1783 30.3613C92.1863 28.6626 90.8103 27.2737 89.1082 27.2657L83.1511 27.2377L83.1564 26.0949C83.1696 23.2917 80.9016 21.0024 78.0985 20.9892L29.0865 20.7588C28.5967 20.7565 28.1954 21.1541 28.1931 21.6439L27.8671 91.0043C27.8648 91.494 28.2624 91.8954 28.7521 91.8977L77.7641 92.128C80.5673 92.1412 82.8566 89.8733 82.8698 87.0701L82.9651 66.8089L88.9222 66.8369C90.6208 66.8449 92.0133 65.4689 92.0213 63.7668L92.0599 55.5553C92.0639 54.6973 91.7133 53.921 91.1497 53.3556C91.7185 52.799 92.0765 52.0261 92.0805 51.1681L92.1191 42.9566C92.1232 42.0986 91.7725 41.3223 91.2089 40.7569C91.7777 40.2038 92.1357 39.4307 92.1397 38.5728ZM29.9672 22.5416L38.4149 22.5814L38.0973 90.1633L29.6495 90.1236L29.9672 22.5416ZM81.0914 87.0618C81.0828 88.8854 79.596 90.3581 77.7725 90.3496L39.8759 90.1714L40.1936 22.5895L78.0902 22.7677C79.9103 22.7762 81.3865 24.263 81.378 26.0865L81.0914 87.0618ZM90.2814 55.5506L90.2428 63.7622C90.2394 64.4812 89.6531 65.0656 88.9306 65.0622L82.9734 65.0342L83.0243 54.2104L88.9814 54.2384C89.7039 54.2418 90.2848 54.8316 90.2814 55.5506ZM90.3406 42.9519L90.302 51.1635C90.2987 51.8825 89.7123 52.4633 88.9898 52.4599L83.0326 52.4319L83.0835 41.6117L89.0407 41.6397C89.7632 41.6431 90.344 42.2329 90.3406 42.9519ZM83.0919 39.8332L83.1427 29.0166L89.0999 29.0446C89.8189 29.0479 90.4032 29.6343 90.3998 30.3532L90.3613 38.5648C90.3579 39.2838 89.7715 39.8682 89.049 39.8648L83.0919 39.8332Z" fill="#3371B3" stroke="#E6F3F2" stroke-width="0.5"/>
</svg>
