<svg width="116" height="117" viewBox="0 0 116 117" fill="none" xmlns="http://www.w3.org/2000/svg">
<circle cx="57.7676" cy="58.665" r="57.75" fill="#EBF5FA"/>
<path d="M70.9034 77.0162L76.7982 77.0223C76.7982 78.5816 75.4792 81.487 73.8498 81.487H41.9702" stroke="#3371B3" stroke-width="1.5" stroke-linecap="round" stroke-linejoin="round"/>
<path d="M70.9051 60.7538V37.1674C70.8977 36.7882 70.8152 36.4142 70.6625 36.0671C70.5098 35.72 70.2899 35.4065 70.0154 35.1448C69.7408 34.8832 69.4172 34.6785 69.0632 34.5426C68.7091 34.4066 68.3316 34.3422 67.9526 34.353H36.0807C36.4596 34.3431 36.8367 34.4082 37.1903 34.5444C37.544 34.6806 37.8673 34.8854 38.1416 35.1469C38.4159 35.4084 38.6359 35.7215 38.7889 36.0682C38.9419 36.4149 39.025 36.7885 39.0332 37.1674V78.6613C39.0389 79.0397 39.1193 79.4132 39.2699 79.7603C39.4205 80.1075 39.6383 80.4214 39.9108 80.684C40.1833 80.9465 40.505 81.1526 40.8575 81.2903C41.2099 81.428 41.5861 81.4946 41.9645 81.4863H41.9751C43.6106 81.4757 44.9169 78.5869 44.9169 77.0151H70.9051V63.8907" stroke="#3371B3" stroke-width="1.5" stroke-linecap="round" stroke-linejoin="round"/>
<path d="M44.4321 58.6296H50.0269" stroke="#3371B3" stroke-width="1.5" stroke-linecap="round" stroke-linejoin="round"/>
<path d="M65.791 67.9586V57.218H55.8108V67.9586H65.791Z" stroke="#3371B3" stroke-width="1.5" stroke-linecap="round" stroke-linejoin="round"/>
<path d="M67.7852 70.1661V68.9524C67.7852 68.4001 67.3374 67.9524 66.7852 67.9524H54.8277C54.2755 67.9524 53.8277 68.4001 53.8277 68.9524V70.1661C53.8277 70.7184 54.2755 71.1661 54.8277 71.1661H66.7852C67.3374 71.1661 67.7852 70.7184 67.7852 70.1661Z" stroke="#3371B3" stroke-width="1.5" stroke-linecap="round" stroke-linejoin="round"/>
<path d="M83.4183 63.8906H65.7964L65.7915 60.7537H83.4183C83.6265 60.7517 83.833 60.7908 84.0261 60.8687C84.2192 60.9465 84.395 61.0617 84.5436 61.2076C84.6921 61.3535 84.8104 61.5272 84.8918 61.7189C84.9731 61.9106 85.0159 62.1164 85.0176 62.3246C85.0128 62.7442 84.8417 63.1448 84.5419 63.4384C84.242 63.732 83.8379 63.8947 83.4183 63.8906Z" stroke="#3371B3" stroke-width="1.5" stroke-linecap="round" stroke-linejoin="round"/>
<path d="M44.4321 54.4163H50.0269" stroke="#3371B3" stroke-width="1.5" stroke-linecap="round" stroke-linejoin="round"/>
<path d="M67.7852 56.213V54.9993C67.7852 54.447 67.3374 53.9993 66.7852 53.9993H54.8277C54.2755 53.9993 53.8277 54.447 53.8277 54.9993V56.213C53.8277 56.7653 54.2755 57.213 54.8277 57.213H66.7852C67.3374 57.213 67.7852 56.7653 67.7852 56.213Z" stroke="#3371B3" stroke-width="1.5" stroke-linecap="round" stroke-linejoin="round"/>
<path d="M44.4321 50.2029H50.0269" stroke="#3371B3" stroke-width="1.5" stroke-linecap="round" stroke-linejoin="round"/>
<path d="M44.4321 45.9895H66.8113" stroke="#3371B3" stroke-width="1.5" stroke-linecap="round" stroke-linejoin="round"/>
<path d="M44.4321 41.7761H66.8113" stroke="#3371B3" stroke-width="1.5" stroke-linecap="round" stroke-linejoin="round"/>
<path d="M36.0758 34.343C36.0758 34.343 29.8233 34.3061 29.0176 39.6238H39.0219" stroke="#3371B3" stroke-width="1.5" stroke-linecap="round" stroke-linejoin="round"/>
</svg>
